<svg width="19" height="15" viewBox="0 0 19 15" fill="none" xmlns="http://www.w3.org/2000/svg">
<path d="M14.3719 0H4.62811C3.40064 0 2.22344 0.484262 1.3555 1.34632C0.487565 2.20838 0 3.37764 0 4.59675V10.4032C0 11.6224 0.487565 12.7916 1.3555 13.6537C2.22344 14.5157 3.40068 15 4.62811 15H14.3719C15.5994 15 16.7766 14.5157 17.6445 13.6537C18.5124 12.7916 19 11.6224 19 10.4032V4.59675C19 3.3776 18.5124 2.20838 17.6445 1.34632C16.7766 0.484262 15.5993 0 14.3719 0ZM1.46161 6.29009H4.62819C5.06339 6.29009 5.46548 6.52064 5.68308 6.89505C5.90051 7.26929 5.90051 7.73039 5.68308 8.10462C5.46548 8.47903 5.06339 8.70958 4.62819 8.70958H1.46161V6.29009ZM17.5384 10.4031C17.5358 11.2365 17.2014 12.035 16.6082 12.6243C16.0147 13.2135 15.2109 13.5458 14.3718 13.5482H4.62803C3.78894 13.5458 2.9851 13.2135 2.39168 12.6243C1.79843 12.035 1.46403 11.2365 1.46144 10.4031V10.1612H4.62803C5.58537 10.1612 6.46992 9.65396 6.94851 8.83043C7.42726 8.00707 7.42726 6.9926 6.94851 6.16923C6.46992 5.34575 5.58532 4.83847 4.62803 4.83847H1.46144V4.59659C1.46405 3.76319 1.79844 2.96463 2.39168 2.3754C2.9851 1.78616 3.78894 1.45386 4.62803 1.45146H14.3718C15.2109 1.45389 16.0147 1.78617 16.6082 2.3754C17.2014 2.96463 17.5358 3.76319 17.5384 4.59659V10.4031Z" fill="#2958FF"/>
</svg>
