<svg width="32" height="32" viewBox="0 0 32 32" fill="none" xmlns="http://www.w3.org/2000/svg">
<path d="M17.3333 15.8672H9.33333C8.78666 15.8672 8.33333 15.4139 8.33333 14.8672C8.33333 14.3205 8.78666 13.8672 9.33333 13.8672H17.3333C17.88 13.8672 18.3333 14.3205 18.3333 14.8672C18.3333 15.4139 17.88 15.8672 17.3333 15.8672Z" fill="#999999"/>
<path d="M2.66667 15.8664C2.12001 15.8664 1.66667 15.4131 1.66667 14.8664V8.70645C1.66667 5.43978 4.32001 2.78644 7.58667 2.78644H15.08C18.5067 2.78644 21 5.06644 21 8.19977C21 8.74644 20.5467 9.19977 20 9.19977C19.4533 9.19977 19 8.74644 19 8.19977C19 5.8531 16.96 4.78644 15.08 4.78644H7.58667C5.42667 4.78644 3.66667 6.54645 3.66667 8.70645V14.8664C3.66667 15.4264 3.21334 15.8664 2.66667 15.8664Z" fill="#999999"/>
<path d="M21.3333 29.2005H8.00001C4.50667 29.2005 1.66667 26.3605 1.66667 22.8672V13.5339C1.66667 10.0405 4.50667 7.20053 8.00001 7.20053H21.3333C24.8267 7.20053 27.6667 10.0405 27.6667 13.5339V15.4671C27.6667 16.0137 27.2133 16.4671 26.6667 16.4671H25.2267C24.76 16.4671 24.3333 16.6404 24.0267 16.9604L24.0133 16.9737C23.5733 17.4137 23.4 18.0271 23.56 18.6271C23.76 19.3737 24.5467 19.9205 25.4267 19.9205H26.6667C27.2133 19.9205 27.6667 20.3739 27.6667 20.9205V22.8539C27.6667 26.3605 24.8267 29.2005 21.3333 29.2005ZM8.00001 9.20053C5.61334 9.20053 3.66667 11.1472 3.66667 13.5339V22.8672C3.66667 25.2539 5.61334 27.2005 8.00001 27.2005H21.3333C23.72 27.2005 25.6667 25.2539 25.6667 22.8672V21.9339H25.4267C23.6267 21.9339 22.0667 20.8005 21.6267 19.1605C21.28 17.8672 21.6533 16.4937 22.6 15.5604C23.2933 14.8537 24.2267 14.4671 25.2267 14.4671H25.6667V13.5339C25.6667 11.1472 23.72 9.20053 21.3333 9.20053H8.00001Z" fill="#999999"/>
<path d="M27.9599 21.9328H25.3865C23.3732 21.9328 21.6665 20.4395 21.5065 18.5195C21.3999 17.4128 21.7999 16.3328 22.5999 15.5461C23.2665 14.8528 24.2132 14.4661 25.2132 14.4661H27.9465C29.2532 14.4661 30.3199 15.5195 30.3199 16.8261V19.5728C30.3332 20.8795 29.2665 21.9328 27.9599 21.9328ZM25.2265 16.4661C24.7599 16.4661 24.3332 16.6395 24.0265 16.9595C23.6399 17.3328 23.4532 17.8395 23.5065 18.3461C23.5732 19.2261 24.4265 19.9328 25.3865 19.9328H27.9599C28.1599 19.9328 28.3332 19.7728 28.3332 19.5728V16.8261C28.3332 16.6261 28.1599 16.4661 27.9599 16.4661H25.2265Z" fill="#999999"/>
</svg>
