<svg width="166" height="97" viewBox="0 0 166 97" fill="none" xmlns="http://www.w3.org/2000/svg">
<path d="M0 67.8515C4.125 67.8515 8.745 44.4059 19.8 44.4059C33.6187 44.4059 35.475 31.4158 48.2625 31.4158C61.05 31.4158 66.6187 46.9406 80.025 46.9406C93.4312 46.9406 91.3687 65 106.425 65C121.481 65 116.944 27.6139 132.206 27.6139C147.469 27.6139 144.787 13.6733 155.1 13.6733C165.412 13.6733 163.144 0.999986 165 1" stroke="#FF0000" stroke-width="2"/>
<circle cx="21.4844" cy="44.1045" r="3.5" fill="#FF0000" fill-opacity="0.5"/>
<circle cx="21.4818" cy="44.1048" r="2.33333" fill="#FF0000"/>
<circle cx="62.4844" cy="37.1045" r="3.5" fill="#FF0000" fill-opacity="0.5"/>
<circle cx="62.4818" cy="37.1048" r="2.33333" fill="#FF0000"/>
<circle cx="83.4844" cy="47.1045" r="3.5" fill="#FF0000" fill-opacity="0.5"/>
<circle cx="83.4818" cy="47.1048" r="2.33333" fill="#FF0000"/>
<circle cx="104.484" cy="64.1045" r="3.5" fill="#FF0000" fill-opacity="0.5"/>
<circle cx="104.482" cy="64.1048" r="2.33333" fill="#FF0000"/>
<circle cx="136.484" cy="27.1045" r="3.5" fill="#FF0000" fill-opacity="0.5"/>
<circle cx="136.482" cy="27.1048" r="2.33333" fill="#FF0000"/>
</svg>
