<svg width="12" height="15" viewBox="0 0 12 15" fill="none" xmlns="http://www.w3.org/2000/svg">
<path d="M7.76562 5.09375V3.75C7.76562 3.1875 7.55729 2.70833 7.14062 2.3125C6.74479 1.89583 6.26562 1.6875 5.70312 1.6875C5.14062 1.6875 4.65104 1.89583 4.23438 2.3125C3.83854 2.70833 3.64062 3.1875 3.64062 3.75V5.09375H7.76562ZM4.76562 10.6875C5.03646 10.9583 5.34896 11.0938 5.70312 11.0938C6.05729 11.0938 6.36979 10.9583 6.64062 10.6875C6.91146 10.4167 7.04688 10.1042 7.04688 9.75C7.04688 9.39583 6.91146 9.08333 6.64062 8.8125C6.36979 8.54167 6.05729 8.40625 5.70312 8.40625C5.34896 8.40625 5.03646 8.54167 4.76562 8.8125C4.49479 9.08333 4.35938 9.39583 4.35938 9.75C4.35938 10.1042 4.49479 10.4167 4.76562 10.6875ZM9.70312 5.09375C10.0573 5.09375 10.3698 5.22917 10.6406 5.5C10.9115 5.75 11.0469 6.05208 11.0469 6.40625V13.0938C11.0469 13.4479 10.9115 13.7604 10.6406 14.0312C10.3698 14.2812 10.0573 14.4062 9.70312 14.4062H1.70312C1.34896 14.4062 1.03646 14.2812 0.765625 14.0312C0.494792 13.7604 0.359375 13.4479 0.359375 13.0938V6.40625C0.359375 6.05208 0.494792 5.75 0.765625 5.5C1.03646 5.22917 1.34896 5.09375 1.70312 5.09375H2.35938V3.75C2.35938 2.83333 2.68229 2.05208 3.32812 1.40625C3.99479 0.739583 4.78646 0.40625 5.70312 0.40625C6.61979 0.40625 7.40104 0.739583 8.04688 1.40625C8.71354 2.05208 9.04688 2.83333 9.04688 3.75V5.09375H9.70312Z" fill="white"/>
</svg>
