<svg width="18" height="14" viewBox="0 0 18 14" fill="none" xmlns="http://www.w3.org/2000/svg">
<path d="M4.53 11.65H1.5" stroke="#E6E6E6" stroke-width="1.2" stroke-miterlimit="10" stroke-linecap="round" stroke-linejoin="round"/>
<path d="M16.4999 11.65H11.1699" stroke="#E6E6E6" stroke-width="1.2" stroke-miterlimit="10" stroke-linecap="round" stroke-linejoin="round"/>
<path d="M13.47 2.65002H16.5" stroke="#E6E6E6" stroke-width="1.2" stroke-miterlimit="10" stroke-linecap="round" stroke-linejoin="round"/>
<path d="M1.5 2.65002H6.83" stroke="#E6E6E6" stroke-width="1.2" stroke-miterlimit="10" stroke-linecap="round" stroke-linejoin="round"/>
<path d="M6.68003 13.8C7.86744 13.8 8.83003 12.8374 8.83003 11.65C8.83003 10.4626 7.86744 9.5 6.68003 9.5C5.49262 9.5 4.53003 10.4626 4.53003 11.65C4.53003 12.8374 5.49262 13.8 6.68003 13.8Z" fill="#D8D8D8"/>
<path d="M11.3099 4.8C12.4973 4.8 13.4599 3.83741 13.4599 2.65C13.4599 1.46259 12.4973 0.5 11.3099 0.5C10.1225 0.5 9.15991 1.46259 9.15991 2.65C9.15991 3.83741 10.1225 4.8 11.3099 4.8Z" fill="#D8D8D8"/>
</svg>
