<svg width="32" height="32" viewBox="0 0 32 32" fill="none" xmlns="http://www.w3.org/2000/svg">
<path d="M29.3333 30.3333H2.66667C2.12 30.3333 1.66667 29.88 1.66667 29.3333C1.66667 28.7867 2.12 28.3333 2.66667 28.3333H29.3333C29.88 28.3333 30.3333 28.7867 30.3333 29.3333C30.3333 29.88 29.88 30.3333 29.3333 30.3333Z" fill="#999999"/>
<path d="M19 30.3333H13C12.4533 30.3333 12 29.88 12 29.3333V5.33332C12 3.03999 13.2667 1.66666 15.4 1.66666H16.6C18.7333 1.66666 20 3.03999 20 5.33332V29.3333C20 29.88 19.5467 30.3333 19 30.3333ZM14 28.3333H18V5.33332C18 3.79999 17.28 3.66666 16.6 3.66666H15.4C14.72 3.66666 14 3.79999 14 5.33332V28.3333Z" fill="#999999"/>
<path d="M9.33333 30.3333H4C3.45333 30.3333 3 29.88 3 29.3333V13.3333C3 11.04 4.17333 9.66666 6.13333 9.66666H7.2C9.16 9.66666 10.3333 11.04 10.3333 13.3333V29.3333C10.3333 29.88 9.88 30.3333 9.33333 30.3333ZM5 28.3333H8.33333V13.3333C8.33333 11.6667 7.6 11.6667 7.2 11.6667H6.13333C5.73333 11.6667 5 11.6667 5 13.3333V28.3333Z" fill="#999999"/>
<path d="M28 30.3333H22.6667C22.12 30.3333 21.6667 29.88 21.6667 29.3333V20C21.6667 17.7067 22.84 16.3333 24.8 16.3333H25.8667C27.8267 16.3333 29 17.7067 29 20V29.3333C29 29.88 28.5467 30.3333 28 30.3333ZM23.6667 28.3333H27V20C27 18.3333 26.2667 18.3333 25.8667 18.3333H24.8C24.4 18.3333 23.6667 18.3333 23.6667 20V28.3333Z" fill="#999999"/>
</svg>
