<svg width="64" height="64" viewBox="0 0 64 64" fill="none" xmlns="http://www.w3.org/2000/svg">
<circle cx="32" cy="32" r="32" fill="url(#paint0_linear_1_346)"/>
<path d="M34.0085 34.4257C34.011 35.2312 33.3601 35.8861 32.5547 35.8886C31.7494 35.8912 31.0943 35.2402 31.0918 34.4349L34.0085 34.4257Z" fill="white"/>
<path d="M29.1731 23.8053L31.0526 21.914L31.0918 34.4349L34.0085 34.4257L33.9693 21.9048L35.8606 23.7843C36.4318 24.3521 37.3552 24.3492 37.923 23.7779C38.4907 23.2066 38.4878 22.2832 37.9165 21.7155L32.4934 16.3263L27.1042 21.7494L29.1731 23.8053Z" fill="white"/>
<path d="M27.1042 21.7494C26.5365 22.3207 26.5394 23.2441 27.1107 23.8118C27.6819 24.3795 28.6053 24.3766 29.1731 23.8053L27.1042 21.7494Z" fill="white"/>
<path d="M20.8333 31.5C20.8333 29.8891 22.1392 28.5833 23.75 28.5833C24.5554 28.5833 25.2083 27.9304 25.2083 27.125C25.2083 26.3196 24.5554 25.6667 23.75 25.6667C20.5283 25.6667 17.9167 28.2783 17.9167 31.5V40.25C17.9167 43.4716 20.5283 46.0833 23.75 46.0833H39.7917C43.8187 46.0833 47.0833 42.8187 47.0833 38.7917V31.5C47.0833 28.2783 44.4716 25.6667 41.25 25.6667C40.4446 25.6667 39.7917 26.3196 39.7917 27.125C39.7917 27.9304 40.4446 28.5833 41.25 28.5833C42.8609 28.5833 44.1667 29.8891 44.1667 31.5V38.7917C44.1667 41.208 42.208 43.1667 39.7917 43.1667H23.75C22.1392 43.1667 20.8333 41.8609 20.8333 40.25V31.5Z" fill="white"/>
<defs>
<linearGradient id="paint0_linear_1_346" x1="32" y1="0" x2="32" y2="64" gradientUnits="userSpaceOnUse">
<stop stop-color="#D10ED1"/>
<stop offset="1" stop-color="#10A3DA"/>
</linearGradient>
</defs>
</svg>
