<svg width="56" height="56" viewBox="0 0 56 56" fill="none" xmlns="http://www.w3.org/2000/svg">
<g filter="url(#filter0_d_34411_2423)">
<path fill-rule="evenodd" clip-rule="evenodd" d="M28 0C14.7452 0 4 10.7452 4 24C4 37.2548 14.7452 48 28 48C41.2548 48 52 37.2548 52 24C52 10.7452 41.2548 0 28 0ZM39.86 18.0487C40.8857 19.8782 41.4707 21.9837 41.4707 24.2247H41.4712C41.4712 24.7806 41.4351 25.3282 41.3653 25.8655H22.9707C22.9707 28.8653 25.5972 31.2971 28.8373 31.2971C31.0488 31.2971 32.9737 30.1638 33.9736 28.4905H40.7309C38.96 33.4281 34.2023 36.9639 28.6103 36.9639C26.5676 36.9639 24.6367 36.4915 22.9215 35.6521C21.3285 36.4686 9.91307 41.9385 13.5707 28.9856C13.5951 28.8994 14.1589 27.4467 15.3172 25.3674C15.5381 24.9708 15.7835 24.5492 16.048 24.1119L16.0585 24.0948C16.1569 23.9323 16.2579 23.7681 16.3624 23.6011L16.3795 23.5738C16.4839 23.4074 16.5904 23.2396 16.7008 23.0692L16.7039 23.0644C17.1232 22.4174 17.5875 21.7438 18.0956 21.057C18.1139 21.0323 18.132 21.0077 18.1501 20.983C18.1877 20.9319 18.2253 20.8809 18.2639 20.8295C18.3264 20.7462 18.3907 20.6626 18.455 20.579C18.473 20.5557 18.4909 20.5324 18.5088 20.509C18.5227 20.491 18.5365 20.4729 18.5504 20.4549C18.6092 20.3783 18.6681 20.3017 18.7283 20.2248C18.8023 20.1304 18.878 20.0359 18.9537 19.9413L18.9664 19.9255C19.0489 19.8225 19.1316 19.7194 19.2161 19.6161C19.2943 19.5206 19.3739 19.4251 19.4537 19.3295C19.544 19.2214 19.6352 19.1134 19.7276 19.0054C19.8068 18.9128 19.8869 18.8203 19.9677 18.7279C20.0652 18.6164 20.164 18.5052 20.2637 18.394C20.344 18.3044 20.4244 18.2152 20.5061 18.1259C20.6113 18.011 20.7185 17.8965 20.8264 17.7821C20.8446 17.7628 20.8628 17.7435 20.881 17.7242C20.9432 17.6581 21.0055 17.592 21.0689 17.5261C21.1844 17.4062 21.3024 17.2871 21.4207 17.1678C21.4423 17.146 21.4639 17.1241 21.4854 17.1023C21.5417 17.0453 21.598 16.9883 21.6553 16.9316C21.7887 16.8 21.9252 16.6695 22.062 16.5391C22.088 16.5143 22.1137 16.4895 22.1394 16.4647C22.1812 16.4243 22.223 16.384 22.2657 16.344C22.4732 16.1498 22.6841 15.9569 22.8996 15.7662C21.5497 16.3442 19.2956 17.7884 16.0747 21.3678C17.3839 15.7077 22.4992 11.4855 28.6103 11.4855C28.8551 11.4855 29.098 11.4929 29.3395 11.5064C30.9769 10.7495 32.7521 10.1523 34.6709 9.78041C35.1752 9.68268 44.2321 8.24702 39.86 18.0487Z" fill="white"/>
<path d="M39.0683 11.6887C40.1758 12.4291 41.0641 13.5919 39.5386 17.5078C38.0755 15.1771 35.8743 13.3487 33.2581 12.3438C34.4482 11.7744 37.3955 10.5701 39.0683 11.6887Z" fill="white"/>
<path d="M15.5324 35.626C14.6304 34.7097 14.4709 32.4779 16.4613 28.411C17.4659 31.2719 19.4704 33.6691 22.0613 35.1904C20.7728 35.893 17.352 37.4747 15.5324 35.626Z" fill="white"/>
<path d="M22.9417 22.3815C23.0445 19.4659 25.6061 17.1315 28.7534 17.1315C31.9006 17.1315 34.4623 19.4659 34.5651 22.3815H22.9417Z" fill="white"/>
</g>
<defs>
<filter id="filter0_d_34411_2423" x="0" y="0" width="56" height="56" filterUnits="userSpaceOnUse" color-interpolation-filters="sRGB">
<feFlood flood-opacity="0" result="BackgroundImageFix"/>
<feColorMatrix in="SourceAlpha" type="matrix" values="0 0 0 0 0 0 0 0 0 0 0 0 0 0 0 0 0 0 127 0" result="hardAlpha"/>
<feOffset dy="4"/>
<feGaussianBlur stdDeviation="2"/>
<feComposite in2="hardAlpha" operator="out"/>
<feColorMatrix type="matrix" values="0 0 0 0 0 0 0 0 0 0 0 0 0 0 0 0 0 0 0.25 0"/>
<feBlend mode="normal" in2="BackgroundImageFix" result="effect1_dropShadow_34411_2423"/>
<feBlend mode="normal" in="SourceGraphic" in2="effect1_dropShadow_34411_2423" result="shape"/>
</filter>
</defs>
</svg>
